<svg id="SvgjsSvg1045" width="360" height="275" xmlns="http://www.w3.org/2000/svg" version="1.1" xmlns:xlink="http://www.w3.org/1999/xlink" xmlns:svgjs="http://svgjs.com/svgjs"><defs id="SvgjsDefs1046"><!--?xml version="1.0"?-->
<svg width="249.3856px" height="218.48px" id="a1496083570318"><path fill="#f5d915" d="M99.4664,59.9508l0,0l0,0l0,0l0,0l5.616-10.3896l0,0l9.126-17.6904l0,0l0,0l0,0l0,0l0-0.1404l0.1404,0l0,0l0,0l0,0l0,0l0,0l0,0l0,0l14.3208-0.2808l0,0l0,0l0,0l0,0l18.8136,0l0,0.1404l0-0.1404l0,0.1404l0,0l0,0l0,0l0,0l0.1404,0l0,0l0,0l0,0l0,0l0,0l0,0l0,0.1404l0,0l0,0l0,0l0,0l0,0l0,0l0,0l-2.106,26.1144l2.106,13.338l0,0l0,0l0.2808,16.5672l0,0l0,0l0.2808,25.974l0,0l0,0l-1.1232,27.2376l0.4212,27.0972l0,0l0,0.1404l0,0l0,0l0,0l0,0l0,0l-0.1404,0l0,0.1404l0,0l0,0l0,0l0,0l0,0l0,0l0,0l-0.1404,0l0,0l0,0l0,0l0,0l-12.2148-0.2808l0,0l0,0l-20.358-0.1404l0,0l0,0l0,0l-0.1404,0l0,0l0,0l0,0l0-0.1404l0,0l0,0l0,0l0,0l0,0l0,0l0,0l0-0.1404l0,0l0,0l0,0l0,0l-1.1232-20.9196l0,0l0,0l0,0l0,0l1.1232-29.0628l0,0l0,0l-0.5616-14.8824l-8.424,15.444l0,0l0,0l-10.9512,18.8136l0,0l0,0l-0.1404,0l0,0l0,0l0,0l0,0l0,0l0,0l0,0l-0.1404,0l0,0l-20.4984-0.4212l0,0l-0.1404,0l0,0l0,0l0,0l0,0l0,0l0,0l0,0l-17.9712-29.484l-1.8252-0.4212l-0.1404,24.9912l0.8424,12.7764l0,0l0,0l0,0l0,0l0,0l0,0l-0.8424,23.7276l0,0l0,0l0,0l0,0l0,0l0,0l0,0l0,0l0,0l0,0l0,0.1404l0,0l0,0l-0.1404,0l0,0l0,0l0,0l0,0l-0.1404,0l0,0l0,0l-15.5844-0.4212l0,0l0,0l-16.9884,0.4212l0,0l0,0l0,0l0,0l0,0l-0.1404,0l0,0l0,0l0,0l0,0l0-0.1404l0,0l0,0l0,0l0,0l0,0l0,0l0,0l0-0.1404l0,0l-0.702-16.2864l0,0l0,0l0,0l0,0l0.4212-20.0772l0,0l0,0l-0.1404-17.55l0,0l0,0l0-18.3924l0,0l0,0l0,0l0,0l0,0l0,0l0,0l0,0l4.914-15.1632l-5.1948-17.6904l0-0.1404l0,0l0,0l0-18.252l0,0l0,0l0,0l0.702-11.6532l0,0l0,0l0,0l0,0l0,0l0,0l0,0l0-0.1404l0,0l0,0l0,0l0,0l0,0l0.1404,0l0,0l0,0l0-0.1404l16.5672-4.6332l0,0l0,0l0,0l0,0l0,0l0,0l0,0l0,0l0,0l0,0l0,0l15.8652,4.0716l0,0l0,0l0,0l0.1404,0l0,0l0,0l0,0l0,0l0,0l0,0l0,0.1404l8.7048,16.7076l0,0l0,0l0,0l0,0l3.6504,12.636l10.6704,15.8652l0,0l0,0l8.0028,13.7592l7.722-14.6016z M43.3064,159.6348l5.8968-8.2836l-1.1232-4.0716l-2.2464,0.9828l-4.0716,10.2492z M49.3436,152.0532l-5.7564,7.8624l9.5472,7.5816z M128.81,32.5728l-0.4212,0l-17.9712,21.3408l28.5012,5.8968z M146.0792,71.4636l0-0.1404l-3.3696-0.4212l0.5616,1.5444z M142.85,72.5868l-0.5616-1.6848l-3.6504-0.4212l-2.3868,4.3524z M141.446,80.8704l2.5272-4.212l-0.9828-3.6504l-6.7392,2.3868z M144.254,77.22l-2.3868,4.0716l5.3352,5.616z M138.2168,161.1792l0,0l0,0z M137.936,160.4772l0.1404-0.2808l-10.3896-24.1488l-13.7592,10.6704z M128.2484,136.0476l10.1088,23.5872l8.1432-18.5328z M122.3516,121.5864l8.1432-2.5272l-9.4068-0.702z M131.7584,119.0592l-7.02,2.2464l13.0572-1.8252z M121.79,121.446l-1.2636-3.0888l-4.914-0.4212z M139.34,119.7612l-16.848,2.3868l5.3352,13.1976z M139.6208,119.1996l-0.4212-2.5272l-6.318,2.106z M139.6208,116.532l0.4212,2.5272l6.5988-4.7736z M131.618,118.638l7.4412-2.3868l-3.7908-24.1488l-20.7792,9.828l6.318,16.0056z M126.704,80.3088l-8.8452-11.934l-3.7908,19.3752z M118.4204,68.3748l8.7048,11.7936l8.2836-4.914z M126.9848,80.73l-12.636,7.3008l20.4984,3.51z M134.7068,91.8216l-20.7792-3.3696l0.4212,13.0572z M127.406,80.4492l7.722,10.6704l0.4212-15.444z M135.6896,74.9736l0.9828-4.7736l-17.2692-1.8252z M137.234,70.3404l-0.8424,3.3696l1.8252-3.2292z M118.7012,67.8132l18.1116,1.9656l2.106-9.4068z M117.8588,67.6728l20.4984-7.5816l-27.9396-5.7564z M113.6468,87.8904l3.7908-19.656l-24.57,8.424z M136.1108,75.816l-0.4212,15.1632l5.616-9.6876z M138.9188,70.0596l3.2292,0.4212l-1.2636-4.0716z M138.4976,70.0596l2.2464-4.3524l-1.5444-4.7736l-1.9656,8.9856z M139.7612,61.2144l1.2636,4.0716l0.702-1.404z M139.6208,60.2316l2.3868,3.2292l2.808-5.1948z M129.2312,32.5728l9.828,26.5356l3.6504-26.2548z M108.8732,54.4752l0.702-0.4212l-2.9484-2.808z M109.9964,54.4752l-0.702,0.702l5.7564,8.2836z M117.1568,67.392l-8.1432-11.7936l-4.7736,6.1776z M117.1568,67.8132l-13.1976-5.616l-10.9512,13.8996z M93.4292,74.8332l10.1088-12.9168l-3.2292-1.404z M113.0852,88.0308l-20.4984-10.9512l2.106,13.0572z M111.1196,88.7328l-16.4268,1.8252l0.4212,2.6676z M84.7244,91.8216l0.1404,0.1404l2.3868,0.2808z M94.6928,93.7872l-9.828-1.404l3.9312,27.2376z M94.6928,93.2256l-0.4212-2.5272l-8.2836,0.9828z M83.882,91.8216l0.1404-0.1404l-2.106-0.1404z M20.702,96.876l0,16.848l6.0372-2.808z M20.8424,96.174l6.318,14.6016l15.3036-7.1604z M53.1344,131.8356l-2.106-1.1232l-1.1232,4.6332z M51.1688,130.2912l1.9656,0.9828l-1.2636-3.3696z M52.0112,127.2024l1.1232,2.808l-0.4212-5.3352z M51.7304,126.5004l0.8424-3.0888l-2.106-0.2808z M51.59,127.2024l-1.5444-4.0716l-17.55-2.3868l18.252,9.4068z M31.7936,120.1824l18.1116,2.3868l-4.7736-12.4956z M32.2148,119.34l12.7764-9.6876l-2.106-5.616z M42.3236,104.1768l-14.8824,7.02l3.7908,8.7048z M50.6072,130.572l-18.8136-9.5472l13.6188,19.2348l3.7908-4.212z M48.9224,137.0304l-3.2292,3.6504l1.6848,2.3868z M46.8164,143.0676l-1.404-2.106l-0.9828,0.9828z M46.8164,143.4888l-2.6676-1.1232l-2.6676,2.808z M46.1144,144.1908l-5.1948,1.5444l-5.0544,5.616z M34.742,152.7552l6.7392,5.3352l3.7908-9.6876z M41.2004,158.652l-6.5988-5.3352l3.3696,13.6188z M36.146,151.7724l9.4068-3.9312l1.404-3.6504z M47.378,144.3312l-1.2636,3.3696l1.9656-0.8424z M47.7992,143.7696l0.702,2.9484l5.0544-2.106z M49.6244,136.3284l-1.404,5.3352l4.3524-8.5644z M50.3264,122.7096l2.106,0.2808l-6.7392-13.338l-0.1404,0.1404z M45.4124,109.3716l0.1404-0.1404l-0.8424-1.8252z M43.4468,103.896l2.5272,5.0544l4.212-3.2292z M44.57,103.7556l6.1776,1.6848l2.2464-1.8252z M43.3064,103.3344l10.1088-0.1404l-4.914-16.4268z M49.2032,87.1884l4.6332,15.8652l4.7736-2.808z M49.0628,86.346l9.9684,13.6188l15.3036-8.9856z M74.3348,91.5408l-15.0228,8.8452l6.1776,8.5644z M75.0368,91.1196l-8.7048,17.2692l17.1288-16.146z M49.484,85.9248l25.272,4.7736l1.2636-12.9168z M20.8424,45.2088l7.4412,14.1804l3.2292-1.2636l2.808-8.7048l-13.4784-4.4928l0,0.2808z M27.8624,59.5296l-7.02-13.4784l-0.4212,16.4268z M44.8508,52.9308l-10.1088-3.3696l-2.6676,8.424z M34.742,49.14l10.2492,3.3696l-6.4584-15.1632z M43.7276,53.9136l-11.934,4.6332l-1.404,4.3524z M38.954,37.206l4.7736,10.9512l-3.3696-10.2492z M34.3208,48.9996l3.7908-11.934l-17.2692,7.4412l0,0z M31.3724,58.6872l-2.9484,1.1232l1.5444,3.0888z M45.4124,53.2116l-15.0228,10.2492l18.1116,22.1832l16.7076-23.868z M45.4124,52.2288l3.7908-9.828l-8.2836-4.212z M49.484,42.6816l-3.6504,9.9684l15.444-3.7908z M40.6388,37.4868l8.7048,4.4928l3.51-9.4068l-12.4956,3.7908z M40.0772,37.206l-0.1404-0.702l-0.8424,0.1404z M38.6732,36.3636l1.1232-0.2808l-1.8252-5.4756z M38.252,36.3636l-0.9828-7.722l-6.4584,6.1776z M37.8308,36.7848l-7.4412-1.6848l-9.126,8.7048z M20.8424,43.524l8.9856-8.5644l-8.7048-1.8252z M28.0028,59.9508l-6.7392,2.6676l8.424,0.5616z M47.9396,85.644l-17.8308-21.762l-4.4928,16.5672z M47.7992,86.0652l-21.9024-5.0544l7.722,9.9684z M48.2204,86.346l-14.3208,5.0544l8.9856,11.7936z M42.3236,103.194l-8.8452-11.6532l-12.3552,4.212z M27.02,111.3372l-6.0372,2.808l9.6876,5.616z M45.1316,140.5404l-14.04-19.7964l-10.1088,10.9512l23.0256,10.1088z M43.7276,142.0848l-22.464-9.828l10.3896,15.8652l8.9856-2.6676z M40.0772,146.016l-8.2836,2.5272l2.5272,3.7908z M33.8996,152.4744l-2.5272-3.7908l-9.9684,2.9484z M33.7592,152.8956l-12.9168-0.8424l7.722,6.8796z M34.1804,153.1764l-5.3352,6.1776l8.5644,7.722z M41.6216,158.9328l-2.808,7.1604l4.212-6.0372z M48.5012,147.1392l0.9828,3.7908l4.212-5.8968z M47.7992,143.3484l6.318,0.8424l-0.8424-11.5128z M52.5728,122.4288l0.702-15.8652l-2.5272-0.702l-4.6332,3.51z M51.3092,105.5808l2.106,0.4212l0-2.106z M58.8908,100.6668l-4.7736,2.6676l10.6704,5.4756z M84.0224,92.3832l-18.1116,16.9884l22.6044,11.0916l-4.0716-28.08l-0.4212,0z M95.114,94.3488l-6.0372,26.1144l15.8652-2.5272z M113.5064,88.452l-17.8308,5.1948l18.252,7.8624z M120.386,117.7956l-5.8968-14.742l0.4212,14.4612z M121.9304,122.0076l-6.4584-3.6504l5.1948,7.3008z M122.2112,122.5692l-1.1232,3.51l5.8968,8.1432z M127.5464,135.7668l-6.7392-9.2664l-6.8796,19.5156z M137.7956,160.8984l-22.8852-13.1976l15.5844,15.444l7.1604-1.8252z M137.3744,161.7408l-6.4584,1.8252l3.9312,3.9312z M137.936,161.6004l-0.9828,2.3868l1.404-2.3868l-0.4212,0z M138.638,160.1964l0.1404,0.4212l3.2292-8.2836z M128.2484,135.6264l18.252,4.914l-6.0372-18.3924z M130.6352,132.3972l9.6876-10.8108l-0.5616-1.6848z M140.1824,119.4804l0.5616,1.8252l5.616-6.1776z M139.6208,116.1108l8.0028-2.5272l-11.7936-20.6388z M141.5864,81.7128l-5.7564,9.6876l11.5128-3.7908z M144.5348,76.6584l2.808,9.126l-0.9828-12.0744z M144.3944,76.0968l1.8252-3.2292l0-0.9828l-2.808,0.9828z M146.6408,71.7444l0,0.4212l0.2808-0.5616z M146.5004,70.902l0.4212,0l-0.4212-0.5616l0,0.5616z M146.0792,70.902l-0.1404-1.2636l-3.9312-5.3352l-0.8424,1.5444l1.404,4.6332z M142.2884,63.882l3.6504,4.914l-0.8424-10.1088z M139.4804,59.67l5.4756-1.9656l-1.1232-12.7764z M139.9016,57.1428l3.7908-13.4784l-0.702-8.9856z M143.2712,32.8536l0.8424,9.6876l3.0888-10.53z M129.0908,32.1516l2.5272,0l-2.5272-0.1404l0,0.1404z M127.2656,33.1344l-15.1632,11.5128l-1.6848,8.5644z M112.2428,44.0856l15.1632-11.6532l-12.7764-0.2808z M109.856,53.6328l1.6848-8.5644l-5.8968,4.4928z M108.452,54.6156l-3.0888-4.6332l-4.3524,9.126z M108.7328,55.0368l-8.1432,4.7736l-0.1404,0.4212l3.3696,1.404l5.0544-6.4584z M99.7472,60.372l-0.5616,1.5444l0.702-1.5444l-0.1404,0z M92.1656,77.3604l-7.3008,13.8996l9.4068-0.9828z M75.1772,90.6984l8.9856,0.5616l-7.722-13.0572z M49.0628,85.644l26.8164-8.2836l-10.3896-15.3036z M46.1144,53.0712l19.0944,8.1432l-3.3696-12.0744z M49.7648,42.2604l11.6532,6.1776l-8.1432-15.7248z M40.2176,35.9424l12.2148-3.7908l-14.742-3.6504z M30.2492,34.6788l6.318-6.0372l-14.742,4.212z M29.828,63.6012l-9.2664-0.5616l4.7736,16.7076z M25.4756,81.1512l-4.6332,14.3208l12.3552-4.3524z M30.8108,120.4632l-10.1088-5.8968l0.1404,16.5672z M20.8424,132.5376l-0.4212,18.954l10.6704-3.2292z M28.2836,159.354l-7.8624-7.02l0.702,15.1632z M28.5644,159.6348l-7.1604,8.2836l15.8652-0.4212z M43.4468,160.3368l-5.1948,7.1604l14.6016,0.4212z M53.2748,166.5144l0.8424-21.3408l-4.4928,6.318z M53.2748,126.6408l0.1404-11.232l-0.4212,7.8624z M63.6644,108.6696l-9.4068-4.7736l1.6848,2.808z M88.3748,120.8844l-22.464-11.0916l8.0028,26.2548z M88.6556,121.1652l-14.3208,15.0228l19.656,0.4212z M94.412,136.3284l10.3896-17.9712l-15.7248,2.6676z M105.3632,117.6552l8.5644-15.7248l-18.5328-8.0028z M114.9104,118.3572l-1.1232,26.8164l6.7392-19.0944z M130.0736,163.2852l-16.2864-16.0056l1.1232,20.0772z M130.3544,163.7064l-14.04,3.7908l18.1116,0.1404z M138.7784,161.6004l-3.51,6.0372l11.3724,0.2808z M139.0592,161.1792l8.0028,6.4584l-0.4212-25.5528z M146.6408,139.698l0.9828-25.4124l-6.7392,7.4412z M135.6896,91.962l11.934,20.7792l-0.1404-24.7104z M146.6408,73.008l0.702,8.2836l-0.1404-9.2664z M146.36,69.498l0.702,0.8424l-1.1232-7.1604z M144.254,43.6644l0.9828,11.6532l1.8252-21.3408z M142.9904,32.4324l2.2464-0.4212l-9.4068,0z M127.9676,32.0112l-2.106,0l2.106,0z M111.6812,44.5068l2.2464-11.0916l-8.0028,15.444z M100.3088,59.5296l0.1404-0.4212l-0.1404,0.4212l0,0z M53.9768,106.1424l1.404,0.4212l-1.404-2.3868l0,1.9656z M65.3492,109.6524l-8.9856-2.3868l16.7076,27.5184z"></path></svg>
<!--?xml version="1.0"?-->
<svg width="702.02336px" height="263.36px" id="t1496083570318"><path fill="#f5d915" d="M36.1568,37.6992q5.4384,0,7.8144,4.6464q1.2144-2.2176,3.3264-3.432t4.5936-1.2144q9.4512,0,9.504,10.8768l0,14.784l-4.752,0l0-14.2032q0-3.696-1.32-5.3592t-4.0656-1.6632q-3.2208,0-4.8048,1.9536t-1.584,5.3856l0,13.8864l-4.752,0l0-13.464q0-4.4352-1.2672-6.0984t-4.0128-1.6632q-2.9568,0-4.7256,2.2704t-1.7688,5.7552l0,13.2l-4.752,0l0-25.0272l4.4352,0l0,3.9072l0.1056,0q0.792-1.848,3.1416-3.1944t4.884-1.3464z M71.07872,38.3328l0,14.9952q0,2.9568,1.5576,4.5936t4.1448,1.6368q3.3264,0,5.148-2.1912t1.8216-5.94l0-13.0944l4.752,0l0,25.0272l-4.752,0l0-3.8544l-0.1056,0q-1.0032,2.112-3.2736,3.3t-4.9632,1.188q-4.1712,0-6.6264-2.5872t-2.4552-6.7584l0-16.3152l4.752,0z M98.55584,23.4432l0,39.9168l-4.752,0l0-39.9168l4.752,0z M106.60256,25.872q1.4256,0,2.4552,1.0296t1.0296,2.4552q0,1.4784-1.056,2.4816t-2.4288,1.0032q-1.4784,0-2.4816-1.0032t-1.0032-2.4816t1.056-2.4816t2.4288-1.0032z M108.97856,38.3328l0,25.0272l-4.752,0l0-25.0272l4.752,0z M127.90208,37.6992q5.544,0,9.0552,3.6432t3.6168,9.504q0,5.8608-3.5904,9.4776t-9.1344,3.6696q-2.7456,0-5.1216-1.1616t-3.5904-3.0624l-0.1056,0l0,18.48l-4.752,0l0-39.9168l4.752,0l0,3.5904l0.1056,0q1.4256-2.0064,3.7488-3.1152t5.016-1.1088z M119.03168,50.8464q0,3.9072,2.2968,6.3096t5.94,2.4024q3.8016,0,5.9928-2.4024t2.244-6.3096q0-3.9072-2.244-6.2832t-6.0456-2.4288q-3.7488,0-5.9664,2.4552t-2.2176,6.2568z M149.0432,23.4432l0,18.744l0.1056,0q1.0032-2.112,3.2472-3.3t4.9896-1.188q4.1712,0,6.6264,2.5344t2.4552,6.8112l0,16.3152l-4.752,0l0-14.9424q0-2.904-1.5048-4.5936t-4.1976-1.6896q-3.3264,0-5.1216,2.1648t-1.848,5.9664l0,13.0944l-4.752,0l0-39.9168l4.752,0z M182.85632,37.6992q5.7552,0,8.9496,3.6168t3.2472,9.9528l0,1.32l-20.064,0q0,3.0624,2.4552,5.148t5.9928,2.1384q3.9072,0,6.864-3.7488l3.5904,2.7456q-4.0128,5.1216-11.088,5.1216q-5.7552,0-9.2664-3.6696t-3.6168-9.4776q0-5.5968,3.6168-9.3192t9.3192-3.828z M189.98432,48.7872q-0.1056-3.5376-2.0064-5.412t-5.2272-1.8744q-2.2176,0-3.9864,1.0824t-2.772,2.7984t-1.0032,3.4056l14.9952,0z M211.60064,37.6992q4.224,0,6.6264,2.5344t2.4552,6.8112l0,16.3152l-4.752,0l0-14.9424q0-2.904-1.5048-4.5936t-4.1976-1.6896q-3.3264,0-5.148,2.2176t-1.8216,5.9136l0,13.0944l-4.752,0l0-25.0272l4.752,0l0,3.8544l0.1056,0q1.0032-2.112,3.2472-3.3t4.9896-1.188z"></path></svg>
</defs><use id="SvgjsUse1047" xlink:href="#t1496083570318" fill="#f5d915" x="57.863670349121094" y="161.35358810424805"></use><use id="SvgjsUse1048" xlink:href="#a1496083570318" fill="#f5d915" x="95.90738677978516" y="6.457208633422852"></use></svg>