<?xml version="1.0" encoding="utf-8"?>
<svg id="SvgjsSvg1032" width="360" height="275" version="1.1" xmlns="http://www.w3.org/2000/svg">
<defs>
<linearGradient id="gradient-0" gradientUnits="userSpaceOnUse" x1="76.615" y1="15.362" x2="76.615" y2="155.762">
<stop offset="0" style="stop-color: rgba(34, 34, 34, 1)"/>
<stop offset="1" style="stop-color: rgba(0, 0, 0, 1)"/>
</linearGradient>
</defs>
<svg width="249.3856px" height="218.48px" id="SvgjsUse1035" transform="matrix(1, 0, 0, 1, 95.90738677978516, 6.457208633422852)">
<path class="muliphen-m" d="M 91.989 47.373 L 91.989 47.373 L 91.989 47.373 L 91.989 47.373 L 91.989 47.373 L 97.605 36.983 L 97.605 36.983 L 106.731 19.293 L 106.731 19.293 L 106.731 19.293 L 106.731 19.293 L 106.731 19.293 L 106.731 19.152 L 106.872 19.152 L 106.872 19.152 L 106.872 19.152 L 106.872 19.152 L 106.872 19.152 L 106.872 19.152 L 106.872 19.152 L 106.872 19.152 L 121.193 18.872 L 121.193 18.872 L 121.193 18.872 L 121.193 18.872 L 121.193 18.872 L 140.006 18.872 L 140.006 19.012 L 140.006 18.872 L 140.006 19.012 L 140.006 19.012 L 140.006 19.012 L 140.006 19.012 L 140.006 19.012 L 140.147 19.012 L 140.147 19.012 L 140.147 19.012 L 140.147 19.012 L 140.147 19.012 L 140.147 19.012 L 140.147 19.012 L 140.147 19.152 L 140.147 19.152 L 140.147 19.152 L 140.147 19.152 L 140.147 19.152 L 140.147 19.152 L 140.147 19.152 L 140.147 19.152 L 138.041 45.267 L 140.147 58.605 L 140.147 58.605 L 140.147 58.605 L 140.427 75.172 L 140.427 75.172 L 140.427 75.172 L 140.708 101.146 L 140.708 101.146 L 140.708 101.146 L 139.585 128.384 L 140.006 155.481 L 140.006 155.481 L 140.006 155.621 L 140.006 155.621 L 140.006 155.621 L 140.006 155.621 L 140.006 155.621 L 140.006 155.621 L 139.866 155.621 L 139.866 155.762 L 139.866 155.762 L 139.866 155.762 L 139.866 155.762 L 139.866 155.762 L 139.866 155.762 L 139.866 155.762 L 139.866 155.762 L 139.725 155.762 L 139.725 155.762 L 139.725 155.762 L 139.725 155.762 L 139.725 155.762 L 127.511 155.481 L 127.511 155.481 L 127.511 155.481 L 107.153 155.34 L 107.153 155.34 L 107.153 155.34 L 107.153 155.34 L 107.012 155.34 L 107.012 155.34 L 107.012 155.34 L 107.012 155.34 L 107.012 155.2 L 107.012 155.2 L 107.012 155.2 L 107.012 155.2 L 107.012 155.2 L 107.012 155.2 L 107.012 155.2 L 107.012 155.2 L 107.012 155.06 L 107.012 155.06 L 107.012 155.06 L 107.012 155.06 L 107.012 155.06 L 105.889 134.14 L 105.889 134.14 L 105.889 134.14 L 105.889 134.14 L 105.889 134.14 L 107.012 105.077 L 107.012 105.077 L 107.012 105.077 L 106.451 90.195 L 98.027 105.639 L 98.027 105.639 L 98.027 105.639 L 87.075 124.452 L 87.075 124.452 L 87.075 124.452 L 86.935 124.452 L 86.935 124.452 L 86.935 124.452 L 86.935 124.452 L 86.935 124.452 L 86.935 124.452 L 86.935 124.452 L 86.935 124.452 L 86.795 124.452 L 86.795 124.452 L 66.296 124.031 L 66.296 124.031 L 66.156 124.031 L 66.156 124.031 L 66.156 124.031 L 66.156 124.031 L 66.156 124.031 L 66.156 124.031 L 66.156 124.031 L 66.156 124.031 L 48.185 94.547 L 46.359 94.126 L 46.219 119.117 L 47.061 131.894 L 47.061 131.894 L 47.061 131.894 L 47.061 131.894 L 47.061 131.894 L 47.061 131.894 L 47.061 131.894 L 46.219 155.621 L 46.219 155.621 L 46.219 155.621 L 46.219 155.621 L 46.219 155.621 L 46.219 155.621 L 46.219 155.621 L 46.219 155.621 L 46.219 155.621 L 46.219 155.621 L 46.219 155.621 L 46.219 155.762 L 46.219 155.762 L 46.219 155.762 L 46.079 155.762 L 46.079 155.762 L 46.079 155.762 L 46.079 155.762 L 46.079 155.762 L 45.938 155.762 L 45.938 155.762 L 45.938 155.762 L 30.354 155.34 L 30.354 155.34 L 30.354 155.34 L 13.365 155.762 L 13.365 155.762 L 13.365 155.762 L 13.365 155.762 L 13.365 155.762 L 13.365 155.762 L 13.225 155.762 L 13.225 155.762 L 13.225 155.762 L 13.225 155.762 L 13.225 155.762 L 13.225 155.621 L 13.225 155.621 L 13.225 155.621 L 13.225 155.621 L 13.225 155.621 L 13.225 155.621 L 13.225 155.621 L 13.225 155.621 L 13.225 155.481 L 13.225 155.481 L 12.523 139.194 L 12.523 139.194 L 12.523 139.194 L 12.523 139.194 L 12.523 139.194 L 12.944 119.117 L 12.944 119.117 L 12.944 119.117 L 12.804 101.567 L 12.804 101.567 L 12.804 101.567 L 12.804 83.175 L 12.804 83.175 L 12.804 83.175 L 12.804 83.175 L 12.804 83.175 L 12.804 83.175 L 12.804 83.175 L 12.804 83.175 L 12.804 83.175 L 17.718 68.012 L 12.523 50.321 L 12.523 50.181 L 12.523 50.181 L 12.523 50.181 L 12.523 31.929 L 12.523 31.929 L 12.523 31.929 L 12.523 31.929 L 13.225 20.276 L 13.225 20.276 L 13.225 20.276 L 13.225 20.276 L 13.225 20.276 L 13.225 20.276 L 13.225 20.276 L 13.225 20.276 L 13.225 20.135 L 13.225 20.135 L 13.225 20.135 L 13.225 20.135 L 13.225 20.135 L 13.225 20.135 L 13.365 20.135 L 13.365 20.135 L 13.365 20.135 L 13.365 19.995 L 29.933 15.362 L 29.933 15.362 L 29.933 15.362 L 29.933 15.362 L 29.933 15.362 L 29.933 15.362 L 29.933 15.362 L 29.933 15.362 L 29.933 15.362 L 29.933 15.362 L 29.933 15.362 L 29.933 15.362 L 45.798 19.433 L 45.798 19.433 L 45.798 19.433 L 45.798 19.433 L 45.938 19.433 L 45.938 19.433 L 45.938 19.433 L 45.938 19.433 L 45.938 19.433 L 45.938 19.433 L 45.938 19.433 L 45.938 19.574 L 54.643 36.281 L 54.643 36.281 L 54.643 36.281 L 54.643 36.281 L 54.643 36.281 L 58.293 48.917 L 68.964 64.782 L 68.964 64.782 L 68.964 64.782 L 76.967 78.542 L 84.689 63.94 L 91.989 47.373 Z" style="paint-order: stroke;"/> 
<path class="muliphen-box" d="M 35.829 147.057 L 41.726 138.773 L 40.603 134.702 L 38.357 135.684 L 34.285 145.934 L 35.829 147.057 Z" style="paint-order: stroke;" />
<path class="muliphen-box" d=" M 41.867 139.475 L 36.11 147.338 L 45.657 154.919 L 41.867 139.475 Z"/>
<path class="muliphen-box" d=" M 121.333 19.995 L 120.912 19.995 L 102.941 41.336 L 131.442 47.232 L 121.333 19.995 Z"/>
<path class="muliphen-box" d="M 138.602 58.886 L 138.602 58.745 L 135.233 58.324 L 135.794 59.868 L 138.602 58.886 Z"/>
<path class="muliphen-box" d="M 135.373 60.009 L 134.811 58.324 L 131.161 57.903 L 128.774 62.255 L 135.373 60.009 Z"/>
<path class="muliphen-box" d="M 133.969 68.292 L 136.496 64.08 L 135.513 60.43 L 128.774 62.817 L 133.969 68.292 Z"/>
<path class="muliphen-box" d="M 136.777 64.642 L 134.39 68.714 L 139.725 74.33 L 136.777 64.642 Z"/>
<path class="muliphen-box" d="M 130.74 148.601 L 130.74 148.601 L 130.74 148.601 Z"/>
<path class="muliphen-box" d="M 130.459 147.899 L 130.599 147.618 L 120.21 123.47 L 106.451 134.14 L 130.459 147.899 Z"/>
<path class="muliphen-box" d="M 120.771 123.47 L 130.88 147.057 L 139.023 128.524 L 120.771 123.47 Z"/>
<path class="muliphen-box" d="M 114.875 109.008 L 123.018 106.481 L 113.611 105.779 L 114.875 109.008 Z"/>
<path class="muliphen-box" d="M 124.281 106.481 L 117.261 108.728 L 130.319 106.902 L 124.281 106.481 Z"/>
<path class="muliphen-box" d="M 114.313 108.868 L 113.049 105.779 L 108.135 105.358 L 114.313 108.868 Z"/>
<path class="muliphen-box" d="M 131.863 107.183 L 115.015 109.57 L 120.35 122.768 L 131.863 107.183 Z"/>
<path class="muliphen-box" d="M 132.144 106.622 L 131.723 104.094 L 125.405 106.2 L 132.144 106.622 Z"/>
<path class="muliphen-box" d="M 132.144 103.954 L 132.565 106.481 L 139.164 101.708 L 132.144 103.954 Z"/>
<path class="muliphen-box" d="M 124.141 106.06 L 131.582 103.673 L 127.791 79.524 L 107.012 89.352 L 113.33 105.358 L 124.141 106.06 Z"/>
<path class="muliphen-box" d="M 119.227 67.731 L 110.382 55.797 L 106.591 75.172 L 119.227 67.731 Z"/>
<path class="muliphen-box" d="M 110.943 55.797 L 119.648 67.59 L 127.932 62.676 L 110.943 55.797 Z"/>
<path class="muliphen-box" d="M 119.508 68.152 L 106.872 75.453 L 127.37 78.963 L 119.508 68.152 Z"/>
<path class="muliphen-box" d="M 127.23 79.244 L 106.451 75.874 L 106.872 88.931 L 127.23 79.244 Z"/>
<path class="muliphen-box" d="M 119.929 67.871 L 127.651 78.542 L 128.072 63.098 L 119.929 67.871 Z"/>
<path class="muliphen-box" d="M 128.213 62.396 L 129.195 57.622 L 111.926 55.797 L 128.213 62.396 Z"/>
<path class="muliphen-box" d="M 129.757 57.762 L 128.915 61.132 L 130.74 57.903 L 129.757 57.762 Z"/>
<path class="muliphen-box" d="M 111.224 55.235 L 129.336 57.201 L 131.442 47.794 L 111.224 55.235 Z"/>
<path class="muliphen-box" d="M 110.382 55.095 L 130.88 47.513 L 102.941 41.757 L 110.382 55.095 Z"/>
<path class="muliphen-box" d="M 106.17 75.312 L 109.961 55.656 L 85.391 64.08 L 106.17 75.312 Z"/>
<path class="muliphen-box" d="M 128.634 63.238 L 128.213 78.401 L 133.829 68.714 L 128.634 63.238 Z"/>
<path class="muliphen-box" d="M 131.442 57.482 L 134.671 57.903 L 133.407 53.831 L 131.442 57.482 Z"/>
<path class="muliphen-box" d="M 131.021 57.482 L 133.267 53.129 L 131.723 48.356 L 129.757 57.341 L 131.021 57.482 Z"/>
<path class="muliphen-box" d="M 132.284 48.636 L 133.548 52.708 L 134.25 51.304 L 132.284 48.636 Z"/>
<path class="muliphen-box" d="M 132.144 47.654 L 134.531 50.883 L 137.339 45.688 L 132.144 47.654 Z"/>
<path class="muliphen-box" d="M 121.754 19.995 L 131.582 46.53 L 135.233 20.276 L 121.754 19.995 Z"/>
<path class="muliphen-box" d="M 101.396 41.897 L 102.098 41.476 L 99.15 38.668 L 101.396 41.897 Z"/>
<path class="muliphen-box" d="M 102.519 41.897 L 101.817 42.599 L 107.574 50.883 L 102.519 41.897 Z"/>
<path class="muliphen-box" d="M 109.68 54.814 L 101.537 43.02 L 96.763 49.198 L 109.68 54.814 Z"/>
<path class="muliphen-box" d="M 109.68 55.235 L 96.482 49.619 L 85.531 63.519 L 109.68 55.235 Z"/>
<path class="muliphen-box" d="M 85.952 62.255 L 96.061 49.338 L 92.832 47.934 L 85.952 62.255 Z"/>
<path class="muliphen-box" d="M 105.608 75.453 L 85.11 64.502 L 87.216 77.559 L 105.608 75.453 Z"/>
<path class="muliphen-box" d="M 103.643 76.155 L 87.216 77.98 L 87.637 80.648 L 103.643 76.155 Z"/>
<path class="muliphen-box" d="M 77.247 79.244 L 77.388 79.384 L 79.775 79.665 L 77.247 79.244 Z"/>
<path class="muliphen-box" d="M 87.216 81.209 L 77.388 79.805 L 81.319 107.043 L 87.216 81.209 Z"/>
<path class="muliphen-box" d="M 87.216 80.648 L 86.795 78.12 L 78.511 79.103 L 87.216 80.648 Z"/>
<path class="muliphen-box" d="M 76.405 79.244 L 76.545 79.103 L 74.439 78.963 L 76.405 79.244 Z"/>
<path class="muliphen-box" d="M 13.225 84.298 L 13.225 101.146 L 19.262 98.338 L 13.225 84.298 Z"/>
<path class="muliphen-box" d="M 13.365 83.596 L 19.683 98.198 L 34.987 91.037 L 13.365 83.596 Z"/>
<path class="muliphen-box" d="M 45.657 119.258 L 43.551 118.134 L 42.428 122.768 L 45.657 119.258 Z"/>
<path class="muliphen-box" d="M 43.692 117.713 L 45.657 118.696 L 44.394 115.326 L 43.692 117.713 Z"/>
<path class="muliphen-box" d="M 44.534 114.624 L 45.657 117.432 L 45.236 112.097 L 44.534 114.624 Z"/>
<path class="muliphen-box" d="M 44.253 113.922 L 45.096 110.834 L 42.99 110.553 L 44.253 113.922 Z"/>
<path class="muliphen-box" d="M 44.113 114.624 L 42.569 110.553 L 25.019 108.166 L 43.271 117.573 L 44.113 114.624 Z"/>
<path class="muliphen-box" d="M 24.317 107.604 L 42.428 109.991 L 37.655 97.496 L 24.317 107.604 Z"/>
<path class="muliphen-box" d="M 24.738 106.762 L 37.514 97.074 L 35.408 91.458 L 24.738 106.762 Z"/>
<path class="muliphen-box" d="M 34.847 91.599 L 19.964 98.619 L 23.755 107.324 L 34.847 91.599 Z"/>
<path class="muliphen-box" d="M 43.13 117.994 L 24.317 108.447 L 37.935 127.682 L 41.726 123.47 L 43.13 117.994 Z"/>
<path class="muliphen-box" d="M 41.445 124.452 L 38.216 128.103 L 39.901 130.49 L 41.445 124.452 Z"/>
<path class="muliphen-box" d="M 39.339 130.49 L 37.935 128.384 L 36.953 129.366 L 39.339 130.49 Z"/>
<path class="muliphen-box" d="M 39.339 130.911 L 36.672 129.788 L 34.004 132.596 L 39.339 130.911 Z"/>
<path class="muliphen-box" d="M 38.637 131.613 L 33.443 133.157 L 28.388 138.773 L 38.637 131.613 Z"/>
<path class="muliphen-box" d="M 27.265 140.177 L 34.004 145.512 L 37.795 135.825 L 27.265 140.177 Z"/>
<path class="muliphen-box" d="M 33.723 146.074 L 27.125 140.739 L 30.494 154.358 L 33.723 146.074 Z"/>
<path class="muliphen-box" d="M 28.669 139.194 L 38.076 135.263 L 39.48 131.613 L 28.669 139.194 Z"/>
<path class="muliphen-box" d="M 39.901 131.753 L 38.637 135.123 L 40.603 134.28 L 39.901 131.753 Z"/>
<path class="muliphen-box" d="M 40.322 131.192 L 41.024 134.14 L 46.079 132.034 L 40.322 131.192 Z"/>
<path class="muliphen-box" d="M 42.147 123.75 L 40.743 129.086 L 45.096 120.521 L 42.147 123.75 Z"/>
<path class="muliphen-box" d="M 42.849 110.132 L 44.955 110.412 L 38.216 97.074 L 38.076 97.215 L 42.849 110.132 Z"/>
<path class="muliphen-box" d="M 37.935 96.794 L 38.076 96.653 L 37.233 94.828 L 37.935 96.794 Z"/>
<path class="muliphen-box" d="M 35.97 91.318 L 38.497 96.372 L 42.709 93.143 L 35.97 91.318 Z"/>
<path class="muliphen-box" d="M 37.093 91.178 L 43.271 92.862 L 45.517 91.037 L 37.093 91.178 Z"/>
<path class="muliphen-box" d="M 35.829 90.756 L 45.938 90.616 L 41.024 74.189 L 35.829 90.756 Z"/>
<path class="muliphen-box" d="M 41.726 74.61 L 46.359 90.476 L 51.133 87.668 L 41.726 74.61 Z"/>
<path class="muliphen-box" d="M 41.586 73.768 L 51.554 87.387 L 66.858 78.401 L 41.586 73.768 Z"/>
<path class="muliphen-box" d="M 66.858 78.963 L 51.835 87.808 L 58.013 96.372 L 66.858 78.963 Z"/>
<path class="muliphen-box" d="M 67.56 78.542 L 58.855 95.811 L 75.984 79.665 L 67.56 78.542 Z"/>
<path class="muliphen-box" d="M 42.007 73.347 L 67.279 78.12 L 68.543 65.204 L 42.007 73.347 Z"/>
<path class="muliphen-box" d="M 13.365 32.631 L 20.807 46.811 L 24.036 45.548 L 26.844 36.843 L 13.365 32.35 L 13.365 32.631 Z"/>
<path class="muliphen-box" d="M 20.385 46.952 L 13.365 33.473 L 12.944 49.9 L 20.385 46.952 Z"/>
<path class="muliphen-box" d="M 37.374 40.353 L 27.265 36.983 L 24.597 45.407 L 37.374 40.353 Z"/>
<path class="muliphen-box" d="M 27.265 36.562 L 37.514 39.932 L 31.056 24.768 L 27.265 36.562 Z"/>
<path class="muliphen-box" d="M 36.251 41.336 L 24.317 45.969 L 22.913 50.321 L 36.251 41.336 Z"/>
<path class="muliphen-box" d="M 31.477 24.628 L 36.251 35.579 L 32.881 25.33 L 31.477 24.628 Z"/>
<path class="muliphen-box" d="M 26.844 36.422 L 30.635 24.488 L 13.365 31.929 L 13.365 31.929 L 26.844 36.422 Z"/>
<path class="muliphen-box" d="M 23.895 46.109 L 20.947 47.232 L 22.491 50.321 L 23.895 46.109 Z"/>
<path class="muliphen-box" d="M 37.935 40.634 L 22.913 50.883 L 41.024 73.066 L 57.732 49.198 L 37.935 40.634 Z"/>
<path class="muliphen-box" d="M 37.935 39.651 L 41.726 29.823 L 33.443 25.611 L 37.935 39.651 Z"/>
<path class="muliphen-box" d="M 42.007 30.104 L 38.357 40.072 L 53.801 36.281 L 42.007 30.104 Z"/>
<path class="muliphen-box" d="M 33.162 24.909 L 41.867 29.402 L 45.377 19.995 L 32.881 23.786 L 33.162 24.909 Z"/>
<path class="muliphen-box" d="M 32.6 24.628 L 32.46 23.926 L 31.617 24.066 L 32.6 24.628 Z"/>
<path class="muliphen-box" d="M 31.196 23.786 L 32.319 23.505 L 30.494 18.029 L 31.196 23.786 Z"/>
<path class="muliphen-box" d="M 30.775 23.786 L 29.792 16.064 L 23.334 22.241 L 30.775 23.786 Z"/>
<path class="muliphen-box" d="M 30.354 24.207 L 22.913 22.522 L 13.787 31.227 L 30.354 24.207 Z"/>
<path class="muliphen-box" d="M 13.365 30.946 L 22.351 22.382 L 13.646 20.556 L 13.365 30.946 Z"/>
<path class="muliphen-box" d="M 20.526 47.373 L 13.787 50.04 L 22.211 50.602 L 20.526 47.373 Z"/>
<path class="muliphen-box" d="M 40.463 73.066 L 22.632 51.304 L 18.139 67.871 L 40.463 73.066 Z"/>
<path class="muliphen-box" d="M 40.322 73.487 L 18.42 68.433 L 26.142 78.401 L 40.322 73.487 Z"/>
<path class="muliphen-box" d="M 40.743 73.768 L 26.423 78.822 L 35.408 90.616 L 40.743 73.768 Z"/>
<path class="muliphen-box" d="M 34.847 90.616 L 26.001 78.963 L 13.646 83.175 L 34.847 90.616 Z"/>
<path class="muliphen-box" d="M 19.543 98.759 L 13.506 101.567 L 23.193 107.183 L 19.543 98.759 Z"/>
<path class="muliphen-box" d="M 37.655 127.962 L 23.615 108.166 L 13.506 119.117 L 36.531 129.226 L 37.655 127.962 Z"/>
<path class="muliphen-box" d="M 36.251 129.507 L 13.787 119.679 L 24.176 135.544 L 33.162 132.876 L 36.251 129.507 Z"/>
<path class="muliphen-box" d="M 32.6 133.438 L 24.317 135.965 L 26.844 139.756 L 32.6 133.438 Z"/>
<path class="muliphen-box" d="M 26.423 139.896 L 23.895 136.106 L 13.927 139.054 L 26.423 139.896 Z"/>
<path class="muliphen-box" d="M 26.282 140.318 L 13.365 139.475 L 21.087 146.355 L 26.282 140.318 Z"/>
<path class="muliphen-box" d="M 26.703 140.598 L 21.368 146.776 L 29.933 154.498 L 26.703 140.598 Z"/>
<path class="muliphen-box" d="M 34.145 146.355 L 31.337 153.515 L 35.549 147.478 L 34.145 146.355 Z"/>
<path class="muliphen-box" d="M 41.024 134.561 L 42.007 138.352 L 46.219 132.455 L 41.024 134.561 Z"/>
<path class="muliphen-box" d="M 40.322 130.77 L 46.64 131.613 L 45.798 120.1 L 40.322 130.77 Z"/>
<path class="muliphen-box" d="M 45.096 109.851 L 45.798 93.986 L 43.271 93.284 L 38.637 96.794 L 45.096 109.851 Z"/>
<path class="muliphen-box" d="M 43.832 93.003 L 45.938 93.424 L 45.938 91.318 L 43.832 93.003 Z"/>
<path class="muliphen-box" d="M 51.414 88.089 L 46.64 90.756 L 57.311 96.232 L 51.414 88.089 Z"/>
<path class="muliphen-box" d="M 76.545 79.805 L 58.434 96.794 L 81.038 107.885 L 76.967 79.805 L 76.545 79.805 Z"/>
<path class="muliphen-box" d="M 87.637 81.771 L 81.6 107.885 L 97.465 105.358 L 87.637 81.771 Z"/>
<path class="muliphen-box" d="M 106.029 75.874 L 88.199 81.069 L 106.451 88.931 L 106.029 75.874 Z"/>
<path class="muliphen-box" d="M 112.909 105.218 L 107.012 90.476 L 107.433 104.937 L 112.909 105.218 Z"/>
<path class="muliphen-box" d="M 114.453 109.43 L 107.995 105.779 L 113.19 113.08 L 114.453 109.43 Z"/>
<path class="muliphen-box" d="M 114.734 109.991 L 113.611 113.501 L 119.508 121.644 L 114.734 109.991 Z"/>
<path class="muliphen-box" d="M 120.069 123.189 L 113.33 113.922 L 106.451 133.438 L 120.069 123.189 Z"/>
<path class="muliphen-box" d="M 130.319 148.32 L 107.433 135.123 L 123.018 150.567 L 130.178 148.742 L 130.319 148.32 Z"/>
<path class="muliphen-box" d="M 129.897 149.163 L 123.439 150.988 L 127.37 154.919 L 129.897 149.163 Z"/>
<path class="muliphen-box" d="M 130.459 149.022 L 129.476 151.409 L 130.88 149.022 L 130.459 149.022 Z"/>
<path class="muliphen-box" d="M 131.161 147.618 L 131.301 148.04 L 134.531 139.756 L 131.161 147.618 Z"/>
<path class="muliphen-box" d="M 120.771 123.048 L 139.023 127.962 L 132.986 109.57 L 120.771 123.048 Z"/>
<path class="muliphen-box" d="M 123.158 119.819 L 132.846 109.008 L 132.284 107.324 L 123.158 119.819 Z"/>
<path class="muliphen-box" d="M 132.705 106.902 L 133.267 108.728 L 138.883 102.55 L 132.705 106.902 Z"/>
<path class="muliphen-box" d="M 132.144 103.533 L 140.147 101.006 L 128.353 80.367 L 132.144 103.533 Z"/>
<path class="muliphen-box" d="M 134.109 69.135 L 128.353 78.822 L 139.866 75.032 L 134.109 69.135 Z"/>
<path class="muliphen-box" d="M 137.058 64.08 L 139.866 73.206 L 138.883 61.132 L 137.058 64.08 Z"/>
<path class="muliphen-box" d="M 136.917 63.519 L 138.743 60.29 L 138.743 59.307 L 135.935 60.29 L 136.917 63.519 Z"/>
<path class="muliphen-box" d="M 139.164 59.166 L 139.164 59.588 L 139.445 59.026 L 139.164 59.166 Z"/>
<path class="muliphen-box" d="M 139.023 58.324 L 139.445 58.324 L 139.023 57.762 L 139.023 58.324 Z"/>
<path class="muliphen-box" d="M 138.602 58.324 L 138.462 57.06 L 134.531 51.725 L 133.688 53.27 L 135.092 57.903 L 138.602 58.324 Z"/>
<path class="muliphen-box" d="M 134.811 51.304 L 138.462 56.218 L 137.619 46.109 L 134.811 51.304 Z"/>
<path class="muliphen-box" d="M 132.003 47.092 L 137.479 45.126 L 136.356 32.35 L 132.003 47.092 Z"/>
<path class="muliphen-box" d="M 132.425 44.565 L 136.215 31.086 L 135.513 22.101 L 132.425 44.565 Z"/>
<path class="muliphen-box" d="M 135.794 20.276 L 136.637 29.963 L 139.725 19.433 L 135.794 20.276 Z"/>
<path class="muliphen-box" d="M 121.614 19.574 L 124.141 19.574 L 121.614 19.433 L 121.614 19.574 Z"/>
<path class="muliphen-box" d="M 119.789 20.556 L 104.625 32.069 L 102.941 40.634 L 119.789 20.556 Z"/>
<path class="muliphen-box" d="M 104.766 31.508 L 119.929 19.854 L 107.153 19.574 L 104.766 31.508 Z"/>
<path class="muliphen-box" d="M 102.379 41.055 L 104.064 32.49 L 98.167 36.983 L 102.379 41.055 Z"/>
<path class="muliphen-box" d="M 100.975 42.038 L 97.886 37.404 L 93.534 46.53 L 100.975 42.038 Z"/>
<path class="muliphen-box" d="M 101.256 42.459 L 93.113 47.232 L 92.972 47.654 L 96.342 49.058 L 101.396 42.599 L 101.256 42.459 Z"/>
<path class="muliphen-box" d="M 92.27 47.794 L 91.709 49.338 L 92.411 47.794 L 92.27 47.794 Z"/>
<path class="muliphen-box" d="M 84.689 64.782 L 77.388 78.682 L 86.795 77.699 L 84.689 64.782 Z"/>
<path class="muliphen-box" d="M 67.7 78.12 L 76.686 78.682 L 68.964 65.625 L 67.7 78.12 Z"/>
<path class="muliphen-box" d="M 41.586 73.066 L 68.402 64.782 L 58.013 49.479 L 41.586 73.066 Z"/>
<path class="muliphen-box" d="M 38.637 40.493 L 57.732 48.636 L 54.362 36.562 L 38.637 40.493 Z"/>
<path class="muliphen-box" d="M 42.288 29.682 L 53.941 35.86 L 45.798 20.135 L 42.288 29.682 Z"/>
<path class="muliphen-box" d="M 32.741 23.364 L 44.955 19.574 L 30.213 15.923 L 32.741 23.364 Z"/>
<path class="muliphen-box" d="M 22.772 22.101 L 29.09 16.064 L 14.348 20.276 L 22.772 22.101 Z"/>
<path class="muliphen-box" d="M 22.351 51.023 L 13.085 50.462 L 17.858 67.169 L 22.351 51.023 Z"/>
<path class="muliphen-box" d="M 17.999 68.573 L 13.365 82.894 L 25.721 78.542 L 17.999 68.573 Z"/>
<path class="muliphen-box" d="M 23.334 107.885 L 13.225 101.988 L 13.365 118.556 L 23.334 107.885 Z"/>
<path class="muliphen-box" d="M 13.365 119.96 L 12.944 138.914 L 23.615 135.684 L 13.365 119.96 Z"/>
<path class="muliphen-box" d="M 20.807 146.776 L 12.944 139.756 L 13.646 154.919 L 20.807 146.776 Z"/>
<path class="muliphen-box" d="M 21.087 147.057 L 13.927 155.34 L 29.792 154.919 L 21.087 147.057 Z"/>
<path class="muliphen-box" d="M 35.97 147.759 L 30.775 154.919 L 45.377 155.34 L 35.97 147.759 Z"/>
<path class="muliphen-box" d="M 45.798 153.936 L 46.64 132.596 L 42.147 138.914 L 45.798 153.936 Z"/>
<path class="muliphen-box" d="M 45.798 114.063 L 45.938 102.831 L 45.517 110.693 L 45.798 114.063 Z"/>
<path class="muliphen-box" d="M 56.187 96.092 L 46.781 91.318 L 48.465 94.126 L 56.187 96.092 Z"/>
<path class="muliphen-box" d="M 80.898 108.306 L 58.434 97.215 L 66.437 123.47 L 80.898 108.306 Z"/>
<path class="muliphen-box" d="M 81.179 108.587 L 66.858 123.61 L 86.514 124.031 L 81.179 108.587 Z"/>
<path class="muliphen-box" d="M 86.935 123.75 L 97.325 105.779 L 81.6 108.447 L 86.935 123.75 Z"/>
<path class="muliphen-box" d="M 97.886 105.077 L 106.451 89.352 L 87.918 81.35 L 97.886 105.077 Z"/>
<path class="muliphen-box" d="M 107.433 105.779 L 106.31 132.596 L 113.049 113.501 L 107.433 105.779 Z"/>
<path class="muliphen-box" d="M 122.597 150.707 L 106.31 134.702 L 107.433 154.779 L 122.597 150.707 Z"/>
<path class="muliphen-box" d="M 122.877 151.128 L 108.837 154.919 L 126.949 155.06 L 122.877 151.128 Z"/>
<path class="muliphen-box" d="M 131.301 149.022 L 127.791 155.06 L 139.164 155.34 L 131.301 149.022 Z"/>
<path class="muliphen-box" d="M 131.582 148.601 L 139.585 155.06 L 139.164 129.507 L 131.582 148.601 Z"/>
<path class="muliphen-box" d="M 139.164 127.12 L 140.147 101.708 L 133.407 109.149 L 139.164 127.12 Z"/>
<path class="muliphen-box" d="M 128.213 79.384 L 140.147 100.163 L 140.006 75.453 L 128.213 79.384 Z"/>
<path class="muliphen-box" d="M 139.164 60.43 L 139.866 68.714 L 139.725 59.447 L 139.164 60.43 Z"/>
<path class="muliphen-box" d="M 138.883 56.92 L 139.585 57.762 L 138.462 50.602 L 138.883 56.92 Z"/>
<path class="muliphen-box" d="M 136.777 31.086 L 137.76 42.74 L 139.585 21.399 L 136.777 31.086 Z"/>
<path class="muliphen-box" d="M 135.513 19.854 L 137.76 19.433 L 128.353 19.433 L 135.513 19.854 Z"/>
<path class="muliphen-box" d="M 120.491 19.433 L 118.385 19.433 L 120.491 19.433 Z"/>
<path class="muliphen-box" d="M 104.204 31.929 L 106.451 20.837 L 98.448 36.281 L 104.204 31.929 Z"/>
<path class="muliphen-box" d="M 92.832 46.952 L 92.972 46.53 L 92.832 46.952 L 92.832 46.952 Z"/>
<path class="muliphen-box" d="M 46.5 93.564 L 47.904 93.986 L 46.5 91.599 L 46.5 93.564 Z"/>
<path class="muliphen-box" d="M 57.872 97.074 L 48.887 94.688 L 65.594 122.206 L 57.872 97.074 Z" style="paint-order: stroke; fill: url(#gradient-0);"/>

</svg>
</svg>
